<svg xmlns="http://www.w3.org/2000/svg" xmlns:xlink="http://www.w3.org/1999/xlink" xmlns:lucid="lucid" width="800" height="1151"><g transform="translate(-500 -49)" lucid:page-tab-id="0_0"><path d="M0 0h1760v1360H0z" fill="#fff"/><path d="M520 208c0-4.42 3.58-8 8-8h364c4.42 0 8 3.58 8 8v144c0 4.42-3.58 8-8 8H528c-4.42 0-8-3.58-8-8zM900 208c0-4.42 3.58-8 8-8h364c4.42 0 8 3.58 8 8v144c0 4.42-3.58 8-8 8H908c-4.42 0-8-3.58-8-8zM520 368c0-4.42 3.58-8 8-8h744c4.42 0 8 3.58 8 8v644c0 4.42-3.58 8-8 8H528c-4.42 0-8-3.58-8-8zM520 1028c0-4.42 3.58-8 8-8h744c4.42 0 8 3.58 8 8v144c0 4.42-3.58 8-8 8H528c-4.42 0-8-3.58-8-8z" stroke="#333" fill-opacity="0"/><use xlink:href="#a" transform="matrix(1,0,0,1,525.0000000000002,1025) translate(372.025 80.025)"/><path d="M611.6 77c0-4.42 3.6-8 8-8h520.8c4.4 0 8 3.58 8 8v26.15c0 4.4-3.6 8-8 8H619.6c-4.4 0-8-3.6-8-8z" stroke="#000" stroke-opacity="0" stroke-width="2" fill="#fff" fill-opacity="0"/><use xlink:href="#b" transform="matrix(1,0,0,1,615.6089147274068,73) translate(115.97604938271604 23.657777777777778)"/><use xlink:href="#c" transform="matrix(1,0,0,1,615.6089147274068,73) translate(265.5883950617284 23.657777777777778)"/><path d="M711.57 109.77h341.96M711.6 109.77h-1.03M1053.5 109.77h1.03" stroke="#b2b2b2" stroke-width="2" fill="none"/><path d="M589.5 119.15c0-4.42 3.6-8 8-8h565c4.4 0 8 3.58 8 8v15.25c0 4.4-3.6 8-8 8h-565c-4.4 0-8-3.6-8-8z" stroke="#000" stroke-opacity="0" stroke-width="2" fill="#fff" fill-opacity="0"/><use xlink:href="#d" transform="matrix(1,0,0,1,593.5143151923994,115.1466666666667) translate(168.5868518518519 16.417037037037037)"/><use xlink:href="#e" transform="matrix(1,0,0,1,593.5143151923994,115.1466666666667) translate(205.12800411522636 16.417037037037037)"/><use xlink:href="#f" transform="matrix(1,0,0,1,593.5143151923994,115.1466666666667) translate(282.2893209876544 16.417037037037037)"/><use xlink:href="#g" transform="matrix(1,0,0,1,593.5143151923994,115.1466666666667) translate(294.7388065843621 16.417037037037037)"/><use xlink:href="#h" transform="matrix(1,0,0,1,593.5143151923994,115.1466666666667) translate(360.0454938271605 16.417037037037037)"/><use xlink:href="#i" transform="matrix(1,0,0,1,593.5143151923994,115.1466666666667) translate(377.041378600823 16.417037037037037)"/><path d="M940 254.25c0-3.45 2.15-8.04 4.8-10.25 2.65-2.2 7.6-4 11.05-4H1232c4.42 0 8 3.58 8 8v56.15c0 3.45-1.8 8.4-4 11.05-2.2 2.65-6.8 4.8-10.25 4.8H948c-4.42 0-8-3.58-8-8z" stroke="#333" fill="#fff"/><path d="M946.25 248c-3.45 0-4.1-1.8-1.45-4 2.65-2.2 7.6-4 11.05-4h278.5c3.12 0 3.86 1.8 1.65 4-2.2 2.2-6.53 4-9.66 4z" stroke="#333" fill="#e6e6e6"/><path d="M1232 253.66c0-3.13 1.8-7.45 4-9.66 2.2-2.2 4-1.47 4 1.66v58.5c0 3.44-1.8 8.4-4 11.04-2.2 2.65-4 2-4-1.45z" stroke="#333" fill="#ccc"/><use xlink:href="#j" transform="matrix(1,0,0,1,948.0000000000002,256) translate(74.57499999999999 16.6)"/><path d="M980 1074.25c0-3.45 2.15-8.04 4.8-10.25 2.65-2.2 7.6-4 11.05-4H1232c4.42 0 8 3.58 8 8v56.15c0 3.45-1.8 8.4-4 11.05-2.2 2.65-6.8 4.8-10.25 4.8H988c-4.42 0-8-3.58-8-8z" stroke="#333" fill="#fff"/><path d="M986.25 1068c-3.45 0-4.1-1.8-1.45-4 2.65-2.2 7.6-4 11.05-4h238.5c3.12 0 3.86 1.8 1.65 4-2.2 2.2-6.53 4-9.66 4z" stroke="#333" fill="#e6e6e6"/><path d="M1232 1073.66c0-3.13 1.8-7.45 4-9.66 2.2-2.2 4-1.47 4 1.66v58.5c0 3.44-1.8 8.4-4 11.04-2.2 2.65-4 2-4-1.45z" stroke="#333" fill="#ccc"/><use xlink:href="#k" transform="matrix(1,0,0,1,988,1076) translate(38.05 14.4)"/><use xlink:href="#l" transform="matrix(1,0,0,1,988,1076) translate(81 14.4)"/><use xlink:href="#m" transform="matrix(1,0,0,1,988,1076) translate(36.074999999999996 36)"/><path d="M560 254.25c0-3.45 2.15-8.04 4.8-10.25 2.65-2.2 7.6-4 11.05-4H852c4.42 0 8 3.58 8 8v56.15c0 3.45-1.8 8.4-4 11.05-2.2 2.65-6.8 4.8-10.25 4.8H568c-4.42 0-8-3.58-8-8z" stroke="#333" fill="#fff"/><path d="M566.25 248c-3.45 0-4.1-1.8-1.45-4 2.65-2.2 7.6-4 11.05-4h278.5c3.12 0 3.86 1.8 1.65 4-2.2 2.2-6.53 4-9.66 4z" stroke="#333" fill="#e6e6e6"/><path d="M852 253.66c0-3.13 1.8-7.45 4-9.66 2.2-2.2 4-1.47 4 1.66v58.5c0 3.44-1.8 8.4-4 11.04-2.2 2.65-4 2-4-1.45z" stroke="#333" fill="#ccc"/><use xlink:href="#n" transform="matrix(1,0,0,1,568.0000000000001,256) translate(72.075 16.6)"/><path d="M1060 609.68c0-3.45 2.15-8.03 4.8-10.24 2.65-2.2 7.6-4 11.05-4H1232c4.42 0 8 3.58 8 8v56.15c0 3.44-1.8 8.4-4 11.04-2.2 2.65-6.8 4.8-10.25 4.8H1068c-4.42 0-8-3.6-8-8z" stroke="#333" fill="#fff"/><path d="M1066.25 603.44c-3.45 0-4.1-1.8-1.45-4 2.65-2.2 7.6-4 11.05-4h158.5c3.12 0 3.86 1.8 1.65 4-2.2 2.2-6.53 4-9.66 4z" stroke="#333" fill="#e6e6e6"/><path d="M1232 609.1c0-3.13 1.8-7.45 4-9.66 2.2-2.2 4-1.47 4 1.65v58.5c0 3.44-1.8 8.4-4 11.04-2.2 2.65-4 2-4-1.45z" stroke="#333" fill="#ccc"/><use xlink:href="#o" transform="matrix(1,0,0,1,1068,611.4360861825023) translate(11.049999999999997 14.4)"/><use xlink:href="#p" transform="matrix(1,0,0,1,1068,611.4360861825023) translate(43.05 14.4)"/><use xlink:href="#q" transform="matrix(1,0,0,1,1068,611.4360861825023) translate(17.099999999999994 36)"/><path d="M560 418c0-3.25 2.03-7.58 4.53-9.66 2.5-2.1 7.16-3.78 10.4-3.78H1232c4.42 0 8 3.6 8 8v52.5c0 3.25-1.7 7.9-3.77 10.4-2.08 2.5-6.4 4.54-9.67 4.54H568c-4.42 0-8-3.58-8-8z" stroke="#333" fill="#fff"/><path d="M565.9 412.1c-3.26 0-3.87-1.68-1.37-3.76 2.5-2.1 7.16-3.78 10.4-3.78h659.74c2.94 0 3.64 1.7 1.56 3.78s-6.16 3.77-9.1 3.77z" stroke="#333" fill="#e6e6e6"/><path d="M1232.46 417.44c0-2.94 1.7-7.02 3.77-9.1 2.08-2.1 3.77-1.4 3.77 1.56v55.16c0 3.25-1.7 7.9-3.77 10.4-2.08 2.5-3.77 1.9-3.77-1.35z" stroke="#333" fill="#ccc"/><use xlink:href="#r" transform="matrix(1,0,0,1,568.0000000000002,420.1075224357459) translate(184.55 14.4)"/><use xlink:href="#s" transform="matrix(1,0,0,1,568.0000000000002,420.1075224357459) translate(226.5 14.4)"/><use xlink:href="#t" transform="matrix(1,0,0,1,568.0000000000002,420.1075224357459) translate(208.1 36)"/><path d="M560 609.68c0-3.45 2.15-8.03 4.8-10.24 2.65-2.2 7.6-4 11.05-4H752c4.42 0 8 3.58 8 8v56.15c0 3.44-1.8 8.4-4 11.04-2.2 2.65-6.8 4.8-10.25 4.8H568c-4.42 0-8-3.6-8-8z" stroke="#333" fill="#fff"/><path d="M566.25 603.44c-3.45 0-4.1-1.8-1.45-4 2.65-2.2 7.6-4 11.05-4h178.5c3.12 0 3.86 1.8 1.65 4-2.2 2.2-6.53 4-9.66 4z" stroke="#333" fill="#e6e6e6"/><path d="M752 609.1c0-3.13 1.8-7.45 4-9.66 2.2-2.2 4-1.47 4 1.65v58.5c0 3.44-1.8 8.4-4 11.04-2.2 2.65-4 2-4-1.45z" stroke="#333" fill="#ccc"/><use xlink:href="#u" transform="matrix(1,0,0,1,568.0000000000001,611.4360861825023) translate(13.25 14.4)"/><use xlink:href="#p" transform="matrix(1,0,0,1,568.0000000000001,611.4360861825023) translate(54.849999999999994 14.4)"/><use xlink:href="#v" transform="matrix(1,0,0,1,568.0000000000001,611.4360861825023) translate(-1.3250000000000028 36)"/><path d="M781.33 609.68c0-3.45 2.15-8.03 4.8-10.24 2.65-2.2 7.6-4 11.05-4H1032c4.42 0 8 3.58 8 8v56.15c0 3.44-1.8 8.4-4 11.04-2.2 2.65-6.8 4.8-10.25 4.8H789.33c-4.4 0-8-3.6-8-8z" stroke="#333" fill="#fff"/><path d="M787.58 603.44c-3.45 0-4.1-1.8-1.45-4 2.65-2.2 7.6-4 11.05-4h237.16c3.13 0 3.87 1.8 1.66 4-2.2 2.2-6.53 4-9.66 4z" stroke="#333" fill="#e6e6e6"/><path d="M1032 609.1c0-3.13 1.8-7.45 4-9.66 2.2-2.2 4-1.47 4 1.65v58.5c0 3.44-1.8 8.4-4 11.04-2.2 2.65-4 2-4-1.45z" stroke="#333" fill="#ccc"/><use xlink:href="#u" transform="matrix(1,0,0,1,789.3333333333333,611.4360861825023) translate(55.7 14.4)"/><use xlink:href="#w" transform="matrix(1,0,0,1,789.3333333333333,611.4360861825023) translate(97.3 14.4)"/><use xlink:href="#x" transform="matrix(1,0,0,1,789.3333333333333,611.4360861825023) translate(15.224999999999994 36)"/><path d="M780 710.5c0-3.65 2.27-8.5 5.07-10.84 2.8-2.33 8.03-4.22 11.68-4.22H1232c4.42 0 8 3.58 8 8v59.8c0 3.66-1.9 8.88-4.23 11.7-2.33 2.8-7.18 5.06-10.83 5.06H788c-4.42 0-8-3.58-8-8z" stroke="#333" fill="#fff"/><path d="M786.6 703.9c-3.64 0-4.33-1.9-1.53-4.24 2.8-2.33 8.03-4.22 11.68-4.22h437.27c3.3 0 4.1 1.9 1.75 4.22-2.33 2.34-6.9 4.23-10.2 4.23z" stroke="#333" fill="#e6e6e6"/><path d="M1231.54 709.87c0-3.3 1.9-7.87 4.23-10.2 2.34-2.34 4.23-1.56 4.23 1.75v61.83c0 3.65-1.9 8.87-4.23 11.68-2.33 2.8-4.23 2.1-4.23-1.53z" stroke="#333" fill="#ccc"/><use xlink:href="#y" transform="matrix(1,0,0,1,788,711.8924775642778) translate(100.55 14.4)"/><use xlink:href="#z" transform="matrix(1,0,0,1,788,711.8924775642778) translate(178.5 14.4)"/><use xlink:href="#A" transform="matrix(1,0,0,1,788,711.8924775642778) translate(94.14999999999999 36)"/><path d="M560 513.44c0-3.26 2.03-7.6 4.53-9.67 2.5-2.08 7.16-3.77 10.4-3.77H1032c4.42 0 8 3.58 8 8v52.5c0 3.25-1.7 7.9-3.77 10.4-2.08 2.5-6.4 4.54-9.67 4.54H568c-4.42 0-8-3.6-8-8z" stroke="#333" fill="#fff"/><path d="M565.9 507.54c-3.26 0-3.87-1.7-1.37-3.77 2.5-2.08 7.16-3.77 10.4-3.77h459.74c2.94 0 3.64 1.7 1.56 3.77-2.08 2.08-6.16 3.77-9.1 3.77z" stroke="#333" fill="#e6e6e6"/><path d="M1032.46 512.88c0-2.95 1.7-7.03 3.77-9.1 2.08-2.1 3.77-1.4 3.77 1.55v55.16c0 3.25-1.7 7.9-3.77 10.4-2.08 2.5-3.77 1.9-3.77-1.36z" stroke="#333" fill="#ccc"/><g><use xlink:href="#B" transform="matrix(1,0,0,1,568,515.5436086182483) translate(98.32499999999999 14.4)"/><use xlink:href="#C" transform="matrix(1,0,0,1,568,515.5436086182483) translate(149.825 14.4)"/><use xlink:href="#D" transform="matrix(1,0,0,1,568,515.5436086182483) translate(102.975 36)"/><use xlink:href="#E" transform="matrix(1,0,0,1,568,515.5436086182483) translate(188.175 36)"/></g><path d="M1060 513.44c0-3.26 2.03-7.6 4.53-9.67 2.5-2.08 7.16-3.77 10.4-3.77H1232c4.42 0 8 3.58 8 8v52.5c0 3.25-1.7 7.9-3.77 10.4-2.08 2.5-6.4 4.54-9.67 4.54H1068c-4.42 0-8-3.6-8-8z" stroke="#333" fill="#fff"/><path d="M1065.9 507.54c-3.26 0-3.87-1.7-1.37-3.77 2.5-2.08 7.16-3.77 10.4-3.77h159.74c2.94 0 3.64 1.7 1.56 3.77-2.08 2.08-6.16 3.77-9.1 3.77z" stroke="#333" fill="#e6e6e6"/><path d="M1232.46 512.88c0-2.95 1.7-7.03 3.77-9.1 2.08-2.1 3.77-1.4 3.77 1.55v55.16c0 3.25-1.7 7.9-3.77 10.4-2.08 2.5-3.77 1.9-3.77-1.36z" stroke="#333" fill="#ccc"/><g><use xlink:href="#F" transform="matrix(1,0,0,1,1068,515.5436086182483) translate(7.1499999999999915 14.4)"/><use xlink:href="#G" transform="matrix(1,0,0,1,1068,515.5436086182483) translate(73 14.4)"/><use xlink:href="#H" transform="matrix(1,0,0,1,1068,515.5436086182483) translate(6.17499999999999 36)"/></g><path d="M780 814.25c0-3.45 2.15-8.04 4.8-10.25 2.65-2.2 7.6-4 11.05-4H952c4.42 0 8 3.58 8 8v56.15c0 3.45-1.8 8.4-4 11.05-2.2 2.65-6.8 4.8-10.25 4.8H788c-4.42 0-8-3.58-8-8z" stroke="#333" fill="#fff"/><path d="M786.25 808c-3.45 0-4.1-1.8-1.45-4 2.65-2.2 7.6-4 11.05-4h158.5c3.12 0 3.86 1.8 1.65 4-2.2 2.2-6.53 4-9.66 4z" stroke="#333" fill="#e6e6e6"/><path d="M952 813.66c0-3.13 1.8-7.45 4-9.66 2.2-2.2 4-1.47 4 1.66v58.5c0 3.44-1.8 8.4-4 11.04-2.2 2.65-4 2-4-1.45z" stroke="#333" fill="#ccc"/><g><use xlink:href="#k" transform="matrix(1,0,0,1,788,816.000000000089) translate(5.099999999999994 14.4)"/><use xlink:href="#I" transform="matrix(1,0,0,1,788,816.000000000089) translate(48.05 14.4)"/><use xlink:href="#J" transform="matrix(1,0,0,1,788,816.000000000089) translate(11.624999999999993 36)"/></g><path d="M980 814.25c0-3.45 2.15-8.04 4.8-10.25 2.65-2.2 7.6-4 11.05-4H1232c4.42 0 8 3.58 8 8v56.15c0 3.45-1.8 8.4-4 11.05-2.2 2.65-6.8 4.8-10.25 4.8H988c-4.42 0-8-3.58-8-8z" stroke="#333" fill="#fff"/><path d="M986.25 808c-3.45 0-4.1-1.8-1.45-4 2.65-2.2 7.6-4 11.05-4h238.5c3.12 0 3.86 1.8 1.65 4-2.2 2.2-6.53 4-9.66 4z" stroke="#333" fill="#e6e6e6"/><path d="M1232 813.66c0-3.13 1.8-7.45 4-9.66 2.2-2.2 4-1.47 4 1.66v58.5c0 3.44-1.8 8.4-4 11.04-2.2 2.65-4 2-4-1.45z" stroke="#333" fill="#ccc"/><g><use xlink:href="#k" transform="matrix(1,0,0,1,988,816.000000000089) translate(1.5999999999999943 14.4)"/><use xlink:href="#K" transform="matrix(1,0,0,1,988,816.000000000089) translate(44.55 14.4)"/><use xlink:href="#I" transform="matrix(1,0,0,1,988,816.000000000089) translate(107.55 14.4)"/><use xlink:href="#J" transform="matrix(1,0,0,1,988,816.000000000089) translate(39.62499999999999 36)"/></g><path d="M980 914.25c0-3.45 2.15-8.04 4.8-10.25 2.65-2.2 7.6-4 11.05-4H1232c4.42 0 8 3.58 8 8v56.15c0 3.45-1.8 8.4-4 11.05-2.2 2.65-6.8 4.8-10.25 4.8H988c-4.42 0-8-3.58-8-8z" stroke="#333" fill="#fff"/><path d="M986.25 908c-3.45 0-4.1-1.8-1.45-4 2.65-2.2 7.6-4 11.05-4h238.5c3.12 0 3.86 1.8 1.65 4-2.2 2.2-6.53 4-9.66 4z" stroke="#333" fill="#e6e6e6"/><path d="M1232 913.66c0-3.13 1.8-7.45 4-9.66 2.2-2.2 4-1.47 4 1.66v58.5c0 3.44-1.8 8.4-4 11.04-2.2 2.65-4 2-4-1.45z" stroke="#333" fill="#ccc"/><g><use xlink:href="#k" transform="matrix(1,0,0,1,988,916.0000000000099) translate(40.525 14.4)"/><use xlink:href="#L" transform="matrix(1,0,0,1,988,916.0000000000099) translate(83.475 14.4)"/><use xlink:href="#M" transform="matrix(1,0,0,1,988,916.0000000000099) translate(-1.7499999999999858 36)"/></g><defs><path fill="#333" d="M77-211l-58-49v-5h36c12 19 30 32 38 54H77" id="N"/><use transform="matrix(0.05,0,0,0.05,0,0)" xlink:href="#N" id="a"/><path fill="#b2b2b2" d="M199 0l-22-63H83L61 0H9l90-248h61L250 0h-51zm-33-102l-36-108c-10 38-24 72-36 108h72" id="O"/><path fill="#b2b2b2" d="M135-194c53 0 70 44 70 98 0 56-19 98-73 100-31 1-45-17-59-34 3 33 2 69 2 105H25l-1-265h48c2 10 0 23 3 31 11-24 29-35 60-35zM114-30c33 0 39-31 40-66 0-38-9-64-40-64-56 0-55 130 0 130" id="P"/><path fill="#b2b2b2" d="M25 0v-261h50V0H25" id="Q"/><path fill="#b2b2b2" d="M25-224v-37h50v37H25zM25 0v-190h50V0H25" id="R"/><path fill="#b2b2b2" d="M190-63c-7 42-38 67-86 67-59 0-84-38-90-98-12-110 154-137 174-36l-49 2c-2-19-15-32-35-32-30 0-35 28-38 64-6 74 65 87 74 30" id="S"/><path fill="#b2b2b2" d="M133-34C117-15 103 5 69 4 32 3 11-16 11-54c-1-60 55-63 116-61 1-26-3-47-28-47-18 1-26 9-28 27l-52-2c7-38 36-58 82-57s74 22 75 68l1 82c-1 14 12 18 25 15v27c-30 8-71 5-69-32zm-48 3c29 0 43-24 42-57-32 0-66-3-65 30 0 17 8 27 23 27" id="T"/><path fill="#b2b2b2" d="M115-3C79 11 28 4 28-45v-112H4v-33h27l15-45h31v45h36v33H77v99c-1 23 16 31 38 25v30" id="U"/><path fill="#b2b2b2" d="M110-194c64 0 96 36 96 99 0 64-35 99-97 99-61 0-95-36-95-99 0-62 34-99 96-99zm-1 164c35 0 45-28 45-65 0-40-10-65-43-65-34 0-45 26-45 65 0 36 10 65 43 65" id="V"/><path fill="#b2b2b2" d="M135-194c87-1 58 113 63 194h-50c-7-57 23-157-34-157-59 0-34 97-39 157H25l-1-190h47c2 12-1 28 3 38 12-26 28-41 61-42" id="W"/><g id="b"><use transform="matrix(0.0728395061728395,0,0,0.0728395061728395,0,0)" xlink:href="#O"/><use transform="matrix(0.0728395061728395,0,0,0.0728395061728395,18.86543209876543,0)" xlink:href="#P"/><use transform="matrix(0.0728395061728395,0,0,0.0728395061728395,34.81728395061728,0)" xlink:href="#P"/><use transform="matrix(0.0728395061728395,0,0,0.0728395061728395,50.76913580246913,0)" xlink:href="#Q"/><use transform="matrix(0.0728395061728395,0,0,0.0728395061728395,58.05308641975308,0)" xlink:href="#R"/><use transform="matrix(0.0728395061728395,0,0,0.0728395061728395,65.33703703703704,0)" xlink:href="#S"/><use transform="matrix(0.0728395061728395,0,0,0.0728395061728395,79.90493827160493,0)" xlink:href="#T"/><use transform="matrix(0.0728395061728395,0,0,0.0728395061728395,94.47283950617283,0)" xlink:href="#U"/><use transform="matrix(0.0728395061728395,0,0,0.0728395061728395,103.14074074074074,0)" xlink:href="#R"/><use transform="matrix(0.0728395061728395,0,0,0.0728395061728395,110.42469135802469,0)" xlink:href="#V"/><use transform="matrix(0.0728395061728395,0,0,0.0728395061728395,126.37654320987654,0)" xlink:href="#W"/></g><path fill="#b2b2b2" d="M135-150c-39-12-60 13-60 57V0H25l-1-190h47c2 13-1 29 3 40 6-28 27-53 61-41v41" id="X"/><path fill="#b2b2b2" d="M114-157C55-157 80-60 75 0H25v-261h50l-1 109c12-26 28-41 61-42 86-1 58 113 63 194h-50c-7-57 23-157-34-157" id="Y"/><path fill="#b2b2b2" d="M185-48c-13 30-37 53-82 52C43 2 14-33 14-96s30-98 90-98c62 0 83 45 84 108H66c0 31 8 55 39 56 18 0 30-7 34-22zm-45-69c5-46-57-63-70-21-2 6-4 13-4 21h74" id="Z"/><path fill="#b2b2b2" d="M85 4C-2 5 27-109 22-190h50c7 57-23 150 33 157 60-5 35-97 40-157h50l1 190h-47c-2-12 1-28-3-38-12 25-28 42-61 42" id="aa"/><g id="c"><use transform="matrix(0.0728395061728395,0,0,0.0728395061728395,0,0)" xlink:href="#O"/><use transform="matrix(0.0728395061728395,0,0,0.0728395061728395,18.86543209876543,0)" xlink:href="#X"/><use transform="matrix(0.0728395061728395,0,0,0.0728395061728395,29.062962962962963,0)" xlink:href="#S"/><use transform="matrix(0.0728395061728395,0,0,0.0728395061728395,43.63086419753086,0)" xlink:href="#Y"/><use transform="matrix(0.0728395061728395,0,0,0.0728395061728395,59.582716049382704,0)" xlink:href="#R"/><use transform="matrix(0.0728395061728395,0,0,0.0728395061728395,66.86666666666666,0)" xlink:href="#U"/><use transform="matrix(0.0728395061728395,0,0,0.0728395061728395,75.53456790123457,0)" xlink:href="#Z"/><use transform="matrix(0.0728395061728395,0,0,0.0728395061728395,90.10246913580247,0)" xlink:href="#S"/><use transform="matrix(0.0728395061728395,0,0,0.0728395061728395,104.67037037037036,0)" xlink:href="#U"/><use transform="matrix(0.0728395061728395,0,0,0.0728395061728395,113.33827160493827,0)" xlink:href="#aa"/><use transform="matrix(0.0728395061728395,0,0,0.0728395061728395,129.29012345679013,0)" xlink:href="#X"/><use transform="matrix(0.0728395061728395,0,0,0.0728395061728395,139.48765432098764,0)" xlink:href="#Z"/></g><path fill="#b2b2b2" d="M153-248C145-148 188 4 80 4 36 3 13-21 6-62l32-5c4 25 16 42 43 43 27 0 39-20 39-49v-147H72v-28h81" id="ab"/><path fill="#b2b2b2" d="M141-36C126-15 110 5 73 4 37 3 15-17 15-53c-1-64 63-63 125-63 3-35-9-54-41-54-24 1-41 7-42 31l-33-3c5-37 33-52 76-52 45 0 72 20 72 64v82c-1 20 7 32 28 27v20c-31 9-61-2-59-35zM48-53c0 20 12 33 32 33 41-3 63-29 60-74-43 2-92-5-92 41" id="ac"/><path fill="#b2b2b2" d="M143 0L79-87 56-68V0H24v-261h32v163l83-92h37l-77 82L181 0h-38" id="ad"/><path fill="#b2b2b2" d="M100-194c63 0 86 42 84 106H49c0 40 14 67 53 68 26 1 43-12 49-29l28 8c-11 28-37 45-77 45C44 4 14-33 15-96c1-61 26-98 85-98zm52 81c6-60-76-77-97-28-3 7-6 17-6 28h103" id="ae"/><g id="d"><use transform="matrix(0.04248971193415638,0,0,0.04248971193415638,0,0)" xlink:href="#ab"/><use transform="matrix(0.04248971193415638,0,0,0.04248971193415638,7.648148148148148,0)" xlink:href="#ac"/><use transform="matrix(0.04248971193415638,0,0,0.04248971193415638,16.14609053497942,0)" xlink:href="#ad"/><use transform="matrix(0.04248971193415638,0,0,0.04248971193415638,23.79423868312757,0)" xlink:href="#ae"/></g><path fill="#b2b2b2" d="M240 0l2-218c-23 76-54 145-80 218h-23L58-218 59 0H30v-248h44l77 211c21-75 51-140 76-211h43V0h-30" id="af"/><path fill="#b2b2b2" d="M24-231v-30h32v30H24zM24 0v-190h32V0H24" id="ag"/><path fill="#b2b2b2" d="M114-163C36-179 61-72 57 0H25l-1-190h30c1 12-1 29 2 39 6-27 23-49 58-41v29" id="ah"/><path fill="#b2b2b2" d="M177-190C167-65 218 103 67 71c-23-6-38-20-44-43l32-5c15 47 100 32 89-28v-30C133-14 115 1 83 1 29 1 15-40 15-95c0-56 16-97 71-98 29-1 48 16 59 35 1-10 0-23 2-32h30zM94-22c36 0 50-32 50-73 0-42-14-75-50-75-39 0-46 34-46 75s6 73 46 73" id="ai"/><path fill="#b2b2b2" d="M85-194c31 0 48 13 60 33l-1-100h32l1 261h-30c-2-10 0-23-3-31C134-8 116 4 85 4 32 4 16-35 15-94c0-66 23-100 70-100zm9 24c-40 0-46 34-46 75 0 40 6 74 45 74 42 0 51-32 51-76 0-42-9-74-50-73" id="aj"/><g id="e"><use transform="matrix(0.04248971193415638,0,0,0.04248971193415638,0,0)" xlink:href="#af"/><use transform="matrix(0.04248971193415638,0,0,0.04248971193415638,12.704423868312757,0)" xlink:href="#ae"/><use transform="matrix(0.04248971193415638,0,0,0.04248971193415638,21.20236625514403,0)" xlink:href="#ag"/><use transform="matrix(0.04248971193415638,0,0,0.04248971193415638,24.559053497942386,0)" xlink:href="#ae"/><use transform="matrix(0.04248971193415638,0,0,0.04248971193415638,33.05699588477366,0)" xlink:href="#ah"/><use transform="matrix(0.04248971193415638,0,0,0.04248971193415638,38.11327160493827,0)" xlink:href="#ai"/><use transform="matrix(0.04248971193415638,0,0,0.04248971193415638,46.611213991769546,0)" xlink:href="#ae"/><use transform="matrix(0.04248971193415638,0,0,0.04248971193415638,55.10915637860082,0)" xlink:href="#ah"/><use transform="matrix(0.04248971193415638,0,0,0.04248971193415638,60.16543209876543,0)" xlink:href="#aj"/></g><path fill="#b2b2b2" d="M32 76v-337h29V76H32" id="ak"/><use transform="matrix(0.04248971193415638,0,0,0.04248971193415638,0,0)" xlink:href="#ak" id="f"/><path fill="#b2b2b2" d="M63-220v92h138v28H63V0H30v-248h175v28H63" id="al"/><path fill="#b2b2b2" d="M115-194c53 0 69 39 70 98 0 66-23 100-70 100C84 3 66-7 56-30L54 0H23l1-261h32v101c10-23 28-34 59-34zm-8 174c40 0 45-34 45-75 0-40-5-75-45-74-42 0-51 32-51 76 0 43 10 73 51 73" id="am"/><path fill="#b2b2b2" d="M84 4C-5 8 30-112 23-190h32v120c0 31 7 50 39 49 72-2 45-101 50-169h31l1 190h-30c-1-10 1-25-2-33-11 22-28 36-60 37" id="an"/><path fill="#b2b2b2" d="M179-190L93 31C79 59 56 82 12 73V49c39 6 53-20 64-50L1-190h34L92-34l54-156h33" id="ao"/><g id="g"><use transform="matrix(0.04248971193415638,0,0,0.04248971193415638,0,0)" xlink:href="#al"/><use transform="matrix(0.04248971193415638,0,0,0.04248971193415638,9.305246913580246,0)" xlink:href="#ae"/><use transform="matrix(0.04248971193415638,0,0,0.04248971193415638,17.80318930041152,0)" xlink:href="#am"/><use transform="matrix(0.04248971193415638,0,0,0.04248971193415638,26.301131687242794,0)" xlink:href="#ah"/><use transform="matrix(0.04248971193415638,0,0,0.04248971193415638,31.357407407407408,0)" xlink:href="#an"/><use transform="matrix(0.04248971193415638,0,0,0.04248971193415638,39.85534979423868,0)" xlink:href="#ac"/><use transform="matrix(0.04248971193415638,0,0,0.04248971193415638,48.35329218106995,0)" xlink:href="#ah"/><use transform="matrix(0.04248971193415638,0,0,0.04248971193415638,53.40956790123455,0)" xlink:href="#ao"/></g><path fill="#b2b2b2" d="M99-251c64 0 84 50 84 122C183-37 130 33 47-8c-14-7-20-23-25-40l30-5c6 39 69 39 84 7 9-19 16-44 16-74-10 22-31 35-62 35-49 0-73-33-73-83 0-54 28-83 82-83zm-1 141c31-1 51-18 51-49 0-36-14-67-51-67-34 0-49 23-49 58 0 34 15 58 49 58" id="ap"/><path fill="#b2b2b2" d="M68-38c1 34 0 65-14 84H32c9-13 17-26 17-46H33v-38h35" id="aq"/><g id="h"><use transform="matrix(0.04248971193415638,0,0,0.04248971193415638,0,0)" xlink:href="#ap"/><use transform="matrix(0.04248971193415638,0,0,0.04248971193415638,8.497942386831275,0)" xlink:href="#aq"/></g><path fill="#b2b2b2" d="M101-251c82-7 93 87 43 132L82-64C71-53 59-42 53-27h129V0H18c2-99 128-94 128-182 0-28-16-43-45-43s-46 15-49 41l-32-3c6-41 34-60 81-64" id="ar"/><path fill="#b2b2b2" d="M101-251c68 0 85 55 85 127S166 4 100 4C33 4 14-52 14-124c0-73 17-127 87-127zm-1 229c47 0 54-49 54-102s-4-102-53-102c-51 0-55 48-55 102 0 53 5 102 54 102" id="as"/><g id="i"><use transform="matrix(0.04248971193415638,0,0,0.04248971193415638,0,0)" xlink:href="#ar"/><use transform="matrix(0.04248971193415638,0,0,0.04248971193415638,8.497942386831275,0)" xlink:href="#as"/><use transform="matrix(0.04248971193415638,0,0,0.04248971193415638,16.99588477366255,0)" xlink:href="#ar"/><use transform="matrix(0.04248971193415638,0,0,0.04248971193415638,25.493827160493822,0)" xlink:href="#as"/></g><path fill="#333" d="M30-248c118-7 216 8 213 122C240-48 200 0 122 0H30v-248zM63-27c89 8 146-16 146-99s-60-101-146-95v194" id="at"/><path fill="#333" d="M24-231v-30h32v30H24zM24 0v-190h32V0H24" id="au"/><path fill="#333" d="M135-143c-3-34-86-38-87 0 15 53 115 12 119 90S17 21 10-45l28-5c4 36 97 45 98 0-10-56-113-15-118-90-4-57 82-63 122-42 12 7 21 19 24 35" id="av"/><path fill="#333" d="M96-169c-40 0-48 33-48 73s9 75 48 75c24 0 41-14 43-38l32 2c-6 37-31 61-74 61-59 0-76-41-82-99-10-93 101-131 147-64 4 7 5 14 7 22l-32 3c-4-21-16-35-41-35" id="aw"/><path fill="#333" d="M100-194c62-1 85 37 85 99 1 63-27 99-86 99S16-35 15-95c0-66 28-99 85-99zM99-20c44 1 53-31 53-75 0-43-8-75-51-75s-53 32-53 75 10 74 51 75" id="ax"/><path fill="#333" d="M114-163C36-179 61-72 57 0H25l-1-190h30c1 12-1 29 2 39 6-27 23-49 58-41v29" id="ay"/><path fill="#333" d="M85-194c31 0 48 13 60 33l-1-100h32l1 261h-30c-2-10 0-23-3-31C134-8 116 4 85 4 32 4 16-35 15-94c0-66 23-100 70-100zm9 24c-40 0-46 34-46 75 0 40 6 74 45 74 42 0 51-32 51-76 0-42-9-74-50-73" id="az"/><g id="j"><use transform="matrix(0.05,0,0,0.05,0,0)" xlink:href="#at"/><use transform="matrix(0.05,0,0,0.05,12.950000000000001,0)" xlink:href="#au"/><use transform="matrix(0.05,0,0,0.05,16.900000000000002,0)" xlink:href="#av"/><use transform="matrix(0.05,0,0,0.05,25.900000000000002,0)" xlink:href="#aw"/><use transform="matrix(0.05,0,0,0.05,34.900000000000006,0)" xlink:href="#ax"/><use transform="matrix(0.05,0,0,0.05,44.900000000000006,0)" xlink:href="#ay"/><use transform="matrix(0.05,0,0,0.05,50.85000000000001,0)" xlink:href="#az"/></g><path fill="#333" d="M141-36C126-15 110 5 73 4 37 3 15-17 15-53c-1-64 63-63 125-63 3-35-9-54-41-54-24 1-41 7-42 31l-33-3c5-37 33-52 76-52 45 0 72 20 72 64v82c-1 20 7 32 28 27v20c-31 9-61-2-59-35zM48-53c0 20 12 33 32 33 41-3 63-29 60-74-43 2-92-5-92 41" id="aA"/><path fill="#333" d="M59-47c-2 24 18 29 38 22v24C64 9 27 4 27-40v-127H5v-23h24l9-43h21v43h35v23H59v120" id="aB"/><g id="k"><use transform="matrix(0.05,0,0,0.05,0,0)" xlink:href="#at"/><use transform="matrix(0.05,0,0,0.05,12.950000000000001,0)" xlink:href="#aA"/><use transform="matrix(0.05,0,0,0.05,22.950000000000003,0)" xlink:href="#aB"/><use transform="matrix(0.05,0,0,0.05,27.950000000000003,0)" xlink:href="#aA"/></g><path fill="#333" d="M185-189c-5-48-123-54-124 2 14 75 158 14 163 119 3 78-121 87-175 55-17-10-28-26-33-46l33-7c5 56 141 63 141-1 0-78-155-14-162-118-5-82 145-84 179-34 5 7 8 16 11 25" id="aC"/><path fill="#333" d="M177-190C167-65 218 103 67 71c-23-6-38-20-44-43l32-5c15 47 100 32 89-28v-30C133-14 115 1 83 1 29 1 15-40 15-95c0-56 16-97 71-98 29-1 48 16 59 35 1-10 0-23 2-32h30zM94-22c36 0 50-32 50-73 0-42-14-75-50-75-39 0-46 34-46 75s6 73 46 73" id="aD"/><path fill="#333" d="M100-194c63 0 86 42 84 106H49c0 40 14 67 53 68 26 1 43-12 49-29l28 8c-11 28-37 45-77 45C44 4 14-33 15-96c1-61 26-98 85-98zm52 81c6-60-76-77-97-28-3 7-6 17-6 28h103" id="aE"/><g id="l"><use transform="matrix(0.05,0,0,0.05,0,0)" xlink:href="#aC"/><use transform="matrix(0.05,0,0,0.05,12,0)" xlink:href="#aB"/><use transform="matrix(0.05,0,0,0.05,17,0)" xlink:href="#ax"/><use transform="matrix(0.05,0,0,0.05,27,0)" xlink:href="#ay"/><use transform="matrix(0.05,0,0,0.05,32.95,0)" xlink:href="#aA"/><use transform="matrix(0.05,0,0,0.05,42.95,0)" xlink:href="#aD"/><use transform="matrix(0.05,0,0,0.05,52.95,0)" xlink:href="#aE"/></g><path fill="#333" d="M87 75C49 33 22-17 22-94c0-76 28-126 65-167h31c-38 41-64 92-64 168S80 34 118 75H87" id="aF"/><path fill="#333" d="M30-248c87 1 191-15 191 75 0 78-77 80-158 76V0H30v-248zm33 125c57 0 124 11 124-50 0-59-68-47-124-48v98" id="aG"/><path fill="#333" d="M140-251c81 0 123 46 123 126C263-53 228-8 163 1c7 30 30 48 69 40v23c-55 16-95-15-103-61C56-3 17-48 17-125c0-80 42-126 123-126zm0 227c63 0 89-41 89-101s-29-99-89-99c-61 0-89 39-89 99S79-25 140-24" id="aH"/><path fill="#333" d="M30 0v-248h33v221h125V0H30" id="aI"/><path fill="#333" d="M33-261c38 41 65 92 65 168S71 34 33 75H2C39 34 66-17 66-93S39-220 2-261h31" id="aJ"/><g id="m"><use transform="matrix(0.05,0,0,0.05,0,0)" xlink:href="#aF"/><use transform="matrix(0.05,0,0,0.05,5.95,0)" xlink:href="#aG"/><use transform="matrix(0.05,0,0,0.05,17.95,0)" xlink:href="#ax"/><use transform="matrix(0.05,0,0,0.05,27.950000000000003,0)" xlink:href="#av"/><use transform="matrix(0.05,0,0,0.05,36.95,0)" xlink:href="#aB"/><use transform="matrix(0.05,0,0,0.05,41.95,0)" xlink:href="#aD"/><use transform="matrix(0.05,0,0,0.05,51.95,0)" xlink:href="#ay"/><use transform="matrix(0.05,0,0,0.05,57.900000000000006,0)" xlink:href="#aE"/><use transform="matrix(0.05,0,0,0.05,67.9,0)" xlink:href="#aC"/><use transform="matrix(0.05,0,0,0.05,79.9,0)" xlink:href="#aH"/><use transform="matrix(0.05,0,0,0.05,93.9,0)" xlink:href="#aI"/><use transform="matrix(0.05,0,0,0.05,103.9,0)" xlink:href="#aJ"/></g><path fill="#333" d="M160-131c35 5 61 23 61 61C221 17 115-2 30 0v-248c76 3 177-17 177 60 0 33-19 50-47 57zm-97-11c50-1 110 9 110-42 0-47-63-36-110-37v79zm0 115c55-2 124 14 124-45 0-56-70-42-124-44v89" id="aK"/><path fill="#333" d="M206 0h-36l-40-164L89 0H53L-1-190h32L70-26l43-164h34l41 164 42-164h31" id="aL"/><g id="n"><use transform="matrix(0.05,0,0,0.05,0,0)" xlink:href="#aK"/><use transform="matrix(0.05,0,0,0.05,12,0)" xlink:href="#ay"/><use transform="matrix(0.05,0,0,0.05,17.95,0)" xlink:href="#ax"/><use transform="matrix(0.05,0,0,0.05,27.950000000000003,0)" xlink:href="#aL"/><use transform="matrix(0.05,0,0,0.05,40.9,0)" xlink:href="#av"/><use transform="matrix(0.05,0,0,0.05,49.9,0)" xlink:href="#aE"/><use transform="matrix(0.05,0,0,0.05,59.900000000000006,0)" xlink:href="#ay"/></g><g id="o"><use transform="matrix(0.05,0,0,0.05,0,0)" xlink:href="#aK"/><use transform="matrix(0.05,0,0,0.05,12,0)" xlink:href="#ax"/><use transform="matrix(0.05,0,0,0.05,22,0)" xlink:href="#aB"/></g><path fill="#333" d="M63-220v92h138v28H63V0H30v-248h175v28H63" id="aM"/><path fill="#333" d="M117-194c89-4 53 116 60 194h-32v-121c0-31-8-49-39-48C34-167 62-67 57 0H25l-1-190h30c1 10-1 24 2 32 11-22 29-35 61-36" id="aN"/><g id="p"><use transform="matrix(0.05,0,0,0.05,0,0)" xlink:href="#aM"/><use transform="matrix(0.05,0,0,0.05,10.950000000000001,0)" xlink:href="#ay"/><use transform="matrix(0.05,0,0,0.05,16.900000000000002,0)" xlink:href="#ax"/><use transform="matrix(0.05,0,0,0.05,26.900000000000002,0)" xlink:href="#aN"/><use transform="matrix(0.05,0,0,0.05,36.900000000000006,0)" xlink:href="#aB"/><use transform="matrix(0.05,0,0,0.05,41.900000000000006,0)" xlink:href="#aE"/><use transform="matrix(0.05,0,0,0.05,51.900000000000006,0)" xlink:href="#aN"/><use transform="matrix(0.05,0,0,0.05,61.900000000000006,0)" xlink:href="#az"/></g><path fill="#333" d="M240 0l2-218c-23 76-54 145-80 218h-23L58-218 59 0H30v-248h44l77 211c21-75 51-140 76-211h43V0h-30" id="aO"/><path fill="#333" d="M141 0L90-78 38 0H4l68-98-65-92h35l48 74 47-74h35l-64 92 68 98h-35" id="aP"/><path fill="#333" d="M33 0v-38h34V0H33" id="aQ"/><g id="q"><use transform="matrix(0.05,0,0,0.05,0,0)" xlink:href="#aF"/><use transform="matrix(0.05,0,0,0.05,5.95,0)" xlink:href="#aO"/><use transform="matrix(0.05,0,0,0.05,20.900000000000002,0)" xlink:href="#ax"/><use transform="matrix(0.05,0,0,0.05,30.900000000000002,0)" xlink:href="#az"/><use transform="matrix(0.05,0,0,0.05,40.900000000000006,0)" xlink:href="#au"/><use transform="matrix(0.05,0,0,0.05,44.85000000000001,0)" xlink:href="#aP"/><use transform="matrix(0.05,0,0,0.05,53.85,0)" xlink:href="#aQ"/><use transform="matrix(0.05,0,0,0.05,58.85,0)" xlink:href="#aK"/><use transform="matrix(0.05,0,0,0.05,70.85000000000001,0)" xlink:href="#ax"/><use transform="matrix(0.05,0,0,0.05,80.85000000000001,0)" xlink:href="#aB"/><use transform="matrix(0.05,0,0,0.05,85.85000000000001,0)" xlink:href="#aJ"/></g><path fill="#333" d="M197 0v-115H63V0H30v-248h33v105h134v-105h34V0h-34" id="aR"/><g id="r"><use transform="matrix(0.05,0,0,0.05,0,0)" xlink:href="#aR"/><use transform="matrix(0.05,0,0,0.05,12.950000000000001,0)" xlink:href="#ax"/><use transform="matrix(0.05,0,0,0.05,22.950000000000003,0)" xlink:href="#av"/><use transform="matrix(0.05,0,0,0.05,31.950000000000003,0)" xlink:href="#aB"/></g><g id="s"><use transform="matrix(0.05,0,0,0.05,0,0)" xlink:href="#aG"/><use transform="matrix(0.05,0,0,0.05,12,0)" xlink:href="#ay"/><use transform="matrix(0.05,0,0,0.05,17.95,0)" xlink:href="#ax"/><use transform="matrix(0.05,0,0,0.05,27.950000000000003,0)" xlink:href="#aw"/><use transform="matrix(0.05,0,0,0.05,36.95,0)" xlink:href="#aE"/><use transform="matrix(0.05,0,0,0.05,46.95,0)" xlink:href="#av"/><use transform="matrix(0.05,0,0,0.05,55.95,0)" xlink:href="#av"/></g><g id="t"><use transform="matrix(0.05,0,0,0.05,0,0)" xlink:href="#aF"/><use transform="matrix(0.05,0,0,0.05,5.95,0)" xlink:href="#aO"/><use transform="matrix(0.05,0,0,0.05,20.900000000000002,0)" xlink:href="#ax"/><use transform="matrix(0.05,0,0,0.05,30.900000000000002,0)" xlink:href="#az"/><use transform="matrix(0.05,0,0,0.05,40.900000000000006,0)" xlink:href="#au"/><use transform="matrix(0.05,0,0,0.05,44.85000000000001,0)" xlink:href="#aP"/><use transform="matrix(0.05,0,0,0.05,53.85,0)" xlink:href="#aJ"/></g><path fill="#333" d="M266 0h-40l-56-210L115 0H75L2-248h35L96-30l15-64 43-154h32l59 218 59-218h35" id="aS"/><path fill="#333" d="M115-194c53 0 69 39 70 98 0 66-23 100-70 100C84 3 66-7 56-30L54 0H23l1-261h32v101c10-23 28-34 59-34zm-8 174c40 0 45-34 45-75 0-40-5-75-45-74-42 0-51 32-51 76 0 43 10 73 51 73" id="aT"/><g id="u"><use transform="matrix(0.05,0,0,0.05,0,0)" xlink:href="#aS"/><use transform="matrix(0.05,0,0,0.05,16.599999999999998,0)" xlink:href="#aE"/><use transform="matrix(0.05,0,0,0.05,26.599999999999994,0)" xlink:href="#aT"/></g><path fill="#333" d="M0 4l72-265h28L28 4H0" id="aU"/><path fill="#333" d="M212-179c-10-28-35-45-73-45-59 0-87 40-87 99 0 60 29 101 89 101 43 0 62-24 78-52l27 14C228-24 195 4 139 4 59 4 22-46 18-125c-6-104 99-153 187-111 19 9 31 26 39 46" id="aV"/><path fill="#333" d="M24 0v-261h32V0H24" id="aW"/><path fill="#333" d="M205 0l-28-72H64L36 0H1l101-248h38L239 0h-34zm-38-99l-47-123c-12 45-31 82-46 123h93" id="aX"/><path fill="#333" d="M115-194c55 1 70 41 70 98S169 2 115 4C84 4 66-9 55-30l1 105H24l-1-265h31l2 30c10-21 28-34 59-34zm-8 174c40 0 45-34 45-75s-6-73-45-74c-42 0-51 32-51 76 0 43 10 73 51 73" id="aY"/><g id="v"><use transform="matrix(0.05,0,0,0.05,0,0)" xlink:href="#aF"/><use transform="matrix(0.05,0,0,0.05,5.95,0)" xlink:href="#aO"/><use transform="matrix(0.05,0,0,0.05,20.900000000000002,0)" xlink:href="#ax"/><use transform="matrix(0.05,0,0,0.05,30.900000000000002,0)" xlink:href="#az"/><use transform="matrix(0.05,0,0,0.05,40.900000000000006,0)" xlink:href="#au"/><use transform="matrix(0.05,0,0,0.05,44.85000000000001,0)" xlink:href="#aP"/><use transform="matrix(0.05,0,0,0.05,53.85,0)" xlink:href="#aU"/><use transform="matrix(0.05,0,0,0.05,58.85,0)" xlink:href="#aV"/><use transform="matrix(0.05,0,0,0.05,71.80000000000001,0)" xlink:href="#aW"/><use transform="matrix(0.05,0,0,0.05,75.75000000000001,0)" xlink:href="#au"/><use transform="matrix(0.05,0,0,0.05,79.70000000000002,0)" xlink:href="#aE"/><use transform="matrix(0.05,0,0,0.05,89.70000000000002,0)" xlink:href="#aN"/><use transform="matrix(0.05,0,0,0.05,99.70000000000002,0)" xlink:href="#aB"/><use transform="matrix(0.05,0,0,0.05,104.7,0)" xlink:href="#aX"/><use transform="matrix(0.05,0,0,0.05,116.7,0)" xlink:href="#aY"/><use transform="matrix(0.05,0,0,0.05,126.7,0)" xlink:href="#aY"/><use transform="matrix(0.05,0,0,0.05,136.70000000000002,0)" xlink:href="#aJ"/></g><path fill="#333" d="M33 0v-248h34V0H33" id="aZ"/><g id="w"><use transform="matrix(0.05,0,0,0.05,0,0)" xlink:href="#aX"/><use transform="matrix(0.05,0,0,0.05,12,0)" xlink:href="#aG"/><use transform="matrix(0.05,0,0,0.05,24,0)" xlink:href="#aZ"/></g><g id="x"><use transform="matrix(0.05,0,0,0.05,0,0)" xlink:href="#aF"/><use transform="matrix(0.05,0,0,0.05,5.95,0)" xlink:href="#aO"/><use transform="matrix(0.05,0,0,0.05,20.900000000000002,0)" xlink:href="#ax"/><use transform="matrix(0.05,0,0,0.05,30.900000000000002,0)" xlink:href="#az"/><use transform="matrix(0.05,0,0,0.05,40.900000000000006,0)" xlink:href="#au"/><use transform="matrix(0.05,0,0,0.05,44.85000000000001,0)" xlink:href="#aP"/><use transform="matrix(0.05,0,0,0.05,53.85,0)" xlink:href="#aU"/><use transform="matrix(0.05,0,0,0.05,58.85,0)" xlink:href="#aV"/><use transform="matrix(0.05,0,0,0.05,71.80000000000001,0)" xlink:href="#ax"/><use transform="matrix(0.05,0,0,0.05,81.80000000000001,0)" xlink:href="#aN"/><use transform="matrix(0.05,0,0,0.05,91.80000000000001,0)" xlink:href="#aB"/><use transform="matrix(0.05,0,0,0.05,96.80000000000001,0)" xlink:href="#ay"/><use transform="matrix(0.05,0,0,0.05,102.75,0)" xlink:href="#ax"/><use transform="matrix(0.05,0,0,0.05,112.75,0)" xlink:href="#aW"/><use transform="matrix(0.05,0,0,0.05,116.7,0)" xlink:href="#aW"/><use transform="matrix(0.05,0,0,0.05,120.65000000000003,0)" xlink:href="#aE"/><use transform="matrix(0.05,0,0,0.05,130.65000000000003,0)" xlink:href="#ay"/><use transform="matrix(0.05,0,0,0.05,136.60000000000002,0)" xlink:href="#av"/><use transform="matrix(0.05,0,0,0.05,145.60000000000002,0)" xlink:href="#aJ"/></g><path fill="#333" d="M84 4C-5 8 30-112 23-190h32v120c0 31 7 50 39 49 72-2 45-101 50-169h31l1 190h-30c-1-10 1-25-2-33-11 22-28 36-60 37" id="ba"/><g id="y"><use transform="matrix(0.05,0,0,0.05,0,0)" xlink:href="#aK"/><use transform="matrix(0.05,0,0,0.05,12,0)" xlink:href="#ba"/><use transform="matrix(0.05,0,0,0.05,22,0)" xlink:href="#av"/><use transform="matrix(0.05,0,0,0.05,31,0)" xlink:href="#au"/><use transform="matrix(0.05,0,0,0.05,34.95,0)" xlink:href="#aN"/><use transform="matrix(0.05,0,0,0.05,44.95,0)" xlink:href="#aE"/><use transform="matrix(0.05,0,0,0.05,54.95,0)" xlink:href="#av"/><use transform="matrix(0.05,0,0,0.05,63.95,0)" xlink:href="#av"/></g><g id="z"><use transform="matrix(0.05,0,0,0.05,0,0)" xlink:href="#aI"/><use transform="matrix(0.05,0,0,0.05,10,0)" xlink:href="#ax"/><use transform="matrix(0.05,0,0,0.05,20,0)" xlink:href="#aD"/><use transform="matrix(0.05,0,0,0.05,30,0)" xlink:href="#au"/><use transform="matrix(0.05,0,0,0.05,33.95,0)" xlink:href="#aw"/></g><path fill="#333" d="M108 0H70L1-190h34L89-25l56-165h34" id="bb"/><g id="A"><use transform="matrix(0.05,0,0,0.05,0,0)" xlink:href="#aF"/><use transform="matrix(0.05,0,0,0.05,5.95,0)" xlink:href="#aO"/><use transform="matrix(0.05,0,0,0.05,20.900000000000002,0)" xlink:href="#ax"/><use transform="matrix(0.05,0,0,0.05,30.900000000000002,0)" xlink:href="#az"/><use transform="matrix(0.05,0,0,0.05,40.900000000000006,0)" xlink:href="#au"/><use transform="matrix(0.05,0,0,0.05,44.85000000000001,0)" xlink:href="#aP"/><use transform="matrix(0.05,0,0,0.05,53.85,0)" xlink:href="#aQ"/><use transform="matrix(0.05,0,0,0.05,58.85,0)" xlink:href="#aC"/><use transform="matrix(0.05,0,0,0.05,70.85000000000001,0)" xlink:href="#aE"/><use transform="matrix(0.05,0,0,0.05,80.85000000000001,0)" xlink:href="#ay"/><use transform="matrix(0.05,0,0,0.05,86.80000000000001,0)" xlink:href="#bb"/><use transform="matrix(0.05,0,0,0.05,95.80000000000001,0)" xlink:href="#au"/><use transform="matrix(0.05,0,0,0.05,99.75000000000001,0)" xlink:href="#aw"/><use transform="matrix(0.05,0,0,0.05,108.75,0)" xlink:href="#aE"/><use transform="matrix(0.05,0,0,0.05,118.75,0)" xlink:href="#av"/><use transform="matrix(0.05,0,0,0.05,127.75,0)" xlink:href="#aJ"/></g><path fill="#333" d="M127-220V0H93v-220H8v-28h204v28h-85" id="bc"/><g id="B"><use transform="matrix(0.05,0,0,0.05,0,0)" xlink:href="#aR"/><use transform="matrix(0.05,0,0,0.05,12.950000000000001,0)" xlink:href="#bc"/><use transform="matrix(0.05,0,0,0.05,23.900000000000002,0)" xlink:href="#bc"/><use transform="matrix(0.05,0,0,0.05,34.85,0)" xlink:href="#aG"/></g><g id="C"><use transform="matrix(0.05,0,0,0.05,0,0)" xlink:href="#aX"/><use transform="matrix(0.05,0,0,0.05,12,0)" xlink:href="#aY"/><use transform="matrix(0.05,0,0,0.05,22,0)" xlink:href="#aY"/><use transform="matrix(0.05,0,0,0.05,32,0)" xlink:href="#aW"/><use transform="matrix(0.05,0,0,0.05,35.95,0)" xlink:href="#au"/><use transform="matrix(0.05,0,0,0.05,39.900000000000006,0)" xlink:href="#aw"/><use transform="matrix(0.05,0,0,0.05,48.900000000000006,0)" xlink:href="#aA"/><use transform="matrix(0.05,0,0,0.05,58.900000000000006,0)" xlink:href="#aB"/><use transform="matrix(0.05,0,0,0.05,63.900000000000006,0)" xlink:href="#au"/><use transform="matrix(0.05,0,0,0.05,67.85000000000001,0)" xlink:href="#ax"/><use transform="matrix(0.05,0,0,0.05,77.85000000000001,0)" xlink:href="#aN"/></g><path fill="#333" d="M190 0L58-211 59 0H30v-248h39L202-35l-2-213h31V0h-41" id="bd"/><path fill="#333" d="M30 0v-248h187v28H63v79h144v27H63v87h162V0H30" id="be"/><g id="D"><use transform="matrix(0.05,0,0,0.05,0,0)" xlink:href="#aF"/><use transform="matrix(0.05,0,0,0.05,5.95,0)" xlink:href="#aX"/><use transform="matrix(0.05,0,0,0.05,17.95,0)" xlink:href="#aC"/><use transform="matrix(0.05,0,0,0.05,29.950000000000003,0)" xlink:href="#aG"/><use transform="matrix(0.05,0,0,0.05,39.65,0)" xlink:href="#aQ"/><use transform="matrix(0.05,0,0,0.05,44.65,0)" xlink:href="#bd"/><use transform="matrix(0.05,0,0,0.05,57.6,0)" xlink:href="#be"/><use transform="matrix(0.05,0,0,0.05,69.6,0)" xlink:href="#bc"/></g><g id="E"><use transform="matrix(0.05,0,0,0.05,0,0)" xlink:href="#aV"/><use transform="matrix(0.05,0,0,0.05,12.950000000000001,0)" xlink:href="#ax"/><use transform="matrix(0.05,0,0,0.05,22.950000000000003,0)" xlink:href="#ay"/><use transform="matrix(0.05,0,0,0.05,28.900000000000002,0)" xlink:href="#aE"/><use transform="matrix(0.05,0,0,0.05,38.900000000000006,0)" xlink:href="#aJ"/></g><g id="F"><use transform="matrix(0.05,0,0,0.05,0,0)" xlink:href="#at"/><use transform="matrix(0.05,0,0,0.05,12.950000000000001,0)" xlink:href="#au"/><use transform="matrix(0.05,0,0,0.05,16.900000000000002,0)" xlink:href="#av"/><use transform="matrix(0.05,0,0,0.05,25.900000000000002,0)" xlink:href="#aw"/><use transform="matrix(0.05,0,0,0.05,34.900000000000006,0)" xlink:href="#ax"/><use transform="matrix(0.05,0,0,0.05,44.900000000000006,0)" xlink:href="#ay"/><use transform="matrix(0.05,0,0,0.05,50.85000000000001,0)" xlink:href="#az"/></g><g id="G"><use transform="matrix(0.05,0,0,0.05,0,0)" xlink:href="#aV"/><use transform="matrix(0.05,0,0,0.05,12.950000000000001,0)" xlink:href="#aW"/><use transform="matrix(0.05,0,0,0.05,16.900000000000002,0)" xlink:href="#au"/><use transform="matrix(0.05,0,0,0.05,20.85,0)" xlink:href="#aE"/><use transform="matrix(0.05,0,0,0.05,30.85,0)" xlink:href="#aN"/><use transform="matrix(0.05,0,0,0.05,40.85,0)" xlink:href="#aB"/></g><g id="H"><use transform="matrix(0.05,0,0,0.05,0,0)" xlink:href="#aF"/><use transform="matrix(0.05,0,0,0.05,5.95,0)" xlink:href="#at"/><use transform="matrix(0.05,0,0,0.05,18.900000000000002,0)" xlink:href="#au"/><use transform="matrix(0.05,0,0,0.05,22.85,0)" xlink:href="#av"/><use transform="matrix(0.05,0,0,0.05,31.85,0)" xlink:href="#aw"/><use transform="matrix(0.05,0,0,0.05,40.85,0)" xlink:href="#ax"/><use transform="matrix(0.05,0,0,0.05,50.85,0)" xlink:href="#ay"/><use transform="matrix(0.05,0,0,0.05,56.800000000000004,0)" xlink:href="#az"/><use transform="matrix(0.05,0,0,0.05,66.80000000000001,0)" xlink:href="#aQ"/><use transform="matrix(0.05,0,0,0.05,71.80000000000001,0)" xlink:href="#bd"/><use transform="matrix(0.05,0,0,0.05,84.75000000000001,0)" xlink:href="#be"/><use transform="matrix(0.05,0,0,0.05,96.75000000000001,0)" xlink:href="#bc"/><use transform="matrix(0.05,0,0,0.05,107.7,0)" xlink:href="#aJ"/></g><g id="I"><use transform="matrix(0.05,0,0,0.05,0,0)" xlink:href="#aO"/><use transform="matrix(0.05,0,0,0.05,14.950000000000001,0)" xlink:href="#ax"/><use transform="matrix(0.05,0,0,0.05,24.950000000000003,0)" xlink:href="#az"/><use transform="matrix(0.05,0,0,0.05,34.95,0)" xlink:href="#aE"/><use transform="matrix(0.05,0,0,0.05,44.95,0)" xlink:href="#aW"/><use transform="matrix(0.05,0,0,0.05,48.900000000000006,0)" xlink:href="#au"/><use transform="matrix(0.05,0,0,0.05,52.85,0)" xlink:href="#aN"/><use transform="matrix(0.05,0,0,0.05,62.85,0)" xlink:href="#aD"/></g><g id="J"><use transform="matrix(0.05,0,0,0.05,0,0)" xlink:href="#aF"/><use transform="matrix(0.05,0,0,0.05,5.95,0)" xlink:href="#aO"/><use transform="matrix(0.05,0,0,0.05,20.900000000000002,0)" xlink:href="#ax"/><use transform="matrix(0.05,0,0,0.05,30.900000000000002,0)" xlink:href="#az"/><use transform="matrix(0.05,0,0,0.05,40.900000000000006,0)" xlink:href="#au"/><use transform="matrix(0.05,0,0,0.05,44.85000000000001,0)" xlink:href="#aP"/><use transform="matrix(0.05,0,0,0.05,53.85,0)" xlink:href="#aQ"/><use transform="matrix(0.05,0,0,0.05,58.85,0)" xlink:href="#at"/><use transform="matrix(0.05,0,0,0.05,71.80000000000001,0)" xlink:href="#aA"/><use transform="matrix(0.05,0,0,0.05,81.80000000000001,0)" xlink:href="#aB"/><use transform="matrix(0.05,0,0,0.05,86.80000000000001,0)" xlink:href="#aA"/><use transform="matrix(0.05,0,0,0.05,96.80000000000001,0)" xlink:href="#aJ"/></g><g id="K"><use transform="matrix(0.05,0,0,0.05,0,0)" xlink:href="#aX"/><use transform="matrix(0.05,0,0,0.05,12,0)" xlink:href="#aw"/><use transform="matrix(0.05,0,0,0.05,21,0)" xlink:href="#aw"/><use transform="matrix(0.05,0,0,0.05,30,0)" xlink:href="#aE"/><use transform="matrix(0.05,0,0,0.05,40,0)" xlink:href="#av"/><use transform="matrix(0.05,0,0,0.05,49,0)" xlink:href="#av"/></g><g id="L"><use transform="matrix(0.05,0,0,0.05,0,0)" xlink:href="#aX"/><use transform="matrix(0.05,0,0,0.05,12,0)" xlink:href="#aw"/><use transform="matrix(0.05,0,0,0.05,21,0)" xlink:href="#aw"/><use transform="matrix(0.05,0,0,0.05,30,0)" xlink:href="#aE"/><use transform="matrix(0.05,0,0,0.05,40,0)" xlink:href="#av"/><use transform="matrix(0.05,0,0,0.05,49,0)" xlink:href="#av"/></g><path fill="#333" d="M179-190L93 31C79 59 56 82 12 73V49c39 6 53-20 64-50L1-190h34L92-34l54-156h33" id="bf"/><path fill="#333" d="M210-169c-67 3-38 105-44 169h-31v-121c0-29-5-50-35-48C34-165 62-65 56 0H25l-1-190h30c1 10-1 24 2 32 10-44 99-50 107 0 11-21 27-35 58-36 85-2 47 119 55 194h-31v-121c0-29-5-49-35-48" id="bg"/><path fill="#333" d="M143 0L79-87 56-68V0H24v-261h32v163l83-92h37l-77 82L181 0h-38" id="bh"/><g id="M"><use transform="matrix(0.05,0,0,0.05,0,0)" xlink:href="#aF"/><use transform="matrix(0.05,0,0,0.05,5.95,0)" xlink:href="#be"/><use transform="matrix(0.05,0,0,0.05,17.95,0)" xlink:href="#aN"/><use transform="matrix(0.05,0,0,0.05,27.950000000000003,0)" xlink:href="#aB"/><use transform="matrix(0.05,0,0,0.05,32.95,0)" xlink:href="#au"/><use transform="matrix(0.05,0,0,0.05,36.900000000000006,0)" xlink:href="#aB"/><use transform="matrix(0.05,0,0,0.05,41.900000000000006,0)" xlink:href="#bf"/><use transform="matrix(0.05,0,0,0.05,50.900000000000006,0)" xlink:href="#aM"/><use transform="matrix(0.05,0,0,0.05,61.85,0)" xlink:href="#ay"/><use transform="matrix(0.05,0,0,0.05,67.80000000000001,0)" xlink:href="#aA"/><use transform="matrix(0.05,0,0,0.05,77.80000000000001,0)" xlink:href="#bg"/><use transform="matrix(0.05,0,0,0.05,92.75000000000001,0)" xlink:href="#aE"/><use transform="matrix(0.05,0,0,0.05,102.75,0)" xlink:href="#aL"/><use transform="matrix(0.05,0,0,0.05,115.7,0)" xlink:href="#ax"/><use transform="matrix(0.05,0,0,0.05,125.7,0)" xlink:href="#ay"/><use transform="matrix(0.05,0,0,0.05,131.65,0)" xlink:href="#bh"/><use transform="matrix(0.05,0,0,0.05,140.65,0)" xlink:href="#aV"/><use transform="matrix(0.05,0,0,0.05,153.6,0)" xlink:href="#ax"/><use transform="matrix(0.05,0,0,0.05,163.6,0)" xlink:href="#ay"/><use transform="matrix(0.05,0,0,0.05,169.54999999999998,0)" xlink:href="#aE"/><use transform="matrix(0.05,0,0,0.05,179.54999999999998,0)" xlink:href="#aJ"/></g></defs></g></svg>